<?xml version="1.0" ?><!DOCTYPE svg  PUBLIC '-//W3C//DTD SVG 1.1//EN'  'http://www.w3.org/Graphics/SVG/1.1/DTD/svg11.dtd'><svg height="32px" style="enable-background:new 0 0 32 32;" version="1.1" viewBox="0 0 32 32" width="32px" x="0px" xml:space="preserve" xmlns="http://www.w3.org/2000/svg" xmlns:xlink="http://www.w3.org/1999/xlink" y="0px"><g id="Layer_1"/><g id="move"><g><polygon points="18,20 18,26 22,26 16,32 10,26 14,26 14,20   " style="fill:#4E4E50;"/><polygon points="14,12 14,6 10,6 16,0 22,6 18,6 18,12   " style="fill:#4E4E50;"/><polygon points="12,18 6,18 6,22 0,16 6,10 6,14 12,14   " style="fill:#4E4E50;"/><polygon points="20,14 26,14 26,10 32,16 26,22 26,18 20,18   " style="fill:#4E4E50;"/></g></g></svg>